<?xml version="1.0" encoding="utf-8"?>
<!-- Generator: Adobe Illustrator 16.0.0, SVG Export Plug-In . SVG Version: 6.00 Build 0)  -->
<!DOCTYPE svg PUBLIC "-//W3C//DTD SVG 1.1//EN" "http://www.w3.org/Graphics/SVG/1.1/DTD/svg11.dtd">
<svg version="1.1" id="Layer_1" xmlns="http://www.w3.org/2000/svg" xmlns:xlink="http://www.w3.org/1999/xlink" x="0px" y="0px"
	 width="113.39px" height="150px" viewBox="0 0 113.39 150" enable-background="new 0 0 113.39 150" xml:space="preserve">
<g>
	<path class="haira-1left" fill="#ECC81E" d="M39.537,84.141c-1.803-0.383-4.128-2.312-5.513-5.463l-0.136-0.312c-0.414-0.952-0.842-1.938-1.522-2.733
		c-0.981-1.147-2.308-1.681-3.478-2.15l-0.183-0.073c-1.934-0.78-4.16-1.81-6.01-3.532c-1.917-1.783-3.145-4.091-3.458-6.496
		c-0.359-2.767,0.508-5.431,1.825-7.61c-0.192,1.513-0.14,3.209,0.365,4.722c0.595,1.78,2.057,3.947,5.648,4.152
		c0.34,0.019,0.792,0.006,1.313-0.026c0.035,0.972,0.2,1.925,0.494,2.849c0.938,2.941,3.513,5.205,7.491,6.62
		c-0.289-0.558-0.549-1.169-0.742-1.819c-2.849-1.253-4.695-3.03-5.396-5.232c-1.045-3.277-0.01-6.354,1.042-8.358
		c1.188-2.264,2.332-4.653,2.13-6.784c-0.232-2.456-1.658-4.214-4.486-5.532c-2.443-1.139-5.687-0.363-8.549,0.32
		c-0.45,0.108-0.894,0.214-1.327,0.311c-1.183,0.265-3.496,0.471-5.703-1.122c-1.357-0.979-2.302-3.762-1.645-6.395
		c0.426,1.434,1.28,2.958,2.622,3.957c1.152,0.856,3.088,1.608,5.77,0.327c4.568-2.183,7.688-2.827,10.887-2.213
		c-0.195-0.507-0.367-1.017-0.518-1.521c-3.232-0.427-6.534,0.328-10.981,2.453c-1.641,0.784-3.091,0.722-4.311-0.185
		c-1.761-1.311-2.555-3.979-2.349-5.314l-1.281-0.518c-2.673,3.789-1.274,8.938,0.975,10.561c2.658,1.918,5.428,1.673,6.844,1.356
		c0.439-0.098,0.89-0.206,1.347-0.314c2.637-0.63,5.626-1.344,7.62-0.415c2.357,1.099,3.49,2.45,3.673,4.379
		c0.179,1.889-1.168,4.456-1.974,5.99c-0.908,1.73-1.438,3.473-1.591,5.177c-0.521,0.035-0.968,0.051-1.273,0.034
		c-2.245-0.129-3.72-1.2-4.383-3.185c-0.975-2.922,0.143-6.673,0.689-7.316c0.03-0.029,0.059-0.058,0.088-0.086l-0.951-1.053
		c-0.036,0.03-0.071,0.064-0.107,0.103c-2.676,2.616-5.285,7.084-4.661,11.874c0.355,2.733,1.74,5.345,3.898,7.354
		c2.019,1.879,4.392,2.979,6.446,3.809L28.36,74.8c1.118,0.449,2.172,0.873,2.927,1.756c0.542,0.634,0.911,1.48,1.3,2.376
		l0.138,0.317c1.632,3.716,4.801,6.384,7.454,6.384l0,0C39.935,85.126,39.721,84.627,39.537,84.141z"/>
	<path class="haira-1right" fill="#ECC81E" d="M102.773,33.068l-1.091,0.849c0.58,1.262,0.724,3.239-0.124,4.578c-0.64,1.011-1.761,1.534-3.335,1.552
		c-1.784,0.023-2.905-0.106-3.896-0.219c-0.964-0.109-1.8-0.204-2.917-0.119c-0.139,0.486-0.296,0.98-0.475,1.473
		c1.285-0.165,2.117-0.071,3.231,0.056c0.982,0.112,2.206,0.25,4.074,0.229c2.597-0.03,3.89-1.22,4.518-2.212
		c0.562-0.889,0.799-1.934,0.813-2.953c1.236,2.469,0.999,5.53,0.116,6.802c-0.926,1.337-2.452,1.847-3.823,2.168
		c-1.216,0.285-2.137,0.375-3.027,0.461c-1.363,0.132-2.54,0.247-4.188,1.016c-2.938,1.369-3.586,2.794-3.805,5.108
		c-0.217,2.292,0.713,5.027,1.655,6.821c1.052,2.004,2.087,5.081,1.042,8.358c-0.703,2.202-2.548,3.979-5.397,5.232
		c-0.192,0.65-0.453,1.262-0.741,1.819c3.978-1.415,6.554-3.679,7.49-6.62c0.295-0.924,0.459-1.877,0.494-2.848
		c0.521,0.031,0.972,0.044,1.313,0.025c3.591-0.205,5.054-2.372,5.648-4.152c0.505-1.513,0.556-3.208,0.365-4.721
		c1.315,2.179,2.183,4.843,1.823,7.61c-0.313,2.405-1.54,4.713-3.457,6.496c-1.85,1.723-4.076,2.752-6.011,3.532l-0.182,0.073
		c-1.171,0.47-2.496,1.002-3.477,2.15c-0.681,0.796-1.11,1.781-1.523,2.733l-0.137,0.312c-1.367,3.115-3.707,5.056-5.503,5.453
		c-0.187,0.49-0.401,0.991-0.649,1.502c0.005,0,0.009,0,0.014,0c2.673,0,5.798-2.648,7.439-6.384l0.137-0.316
		c0.39-0.896,0.758-1.743,1.3-2.377c0.755-0.883,1.811-1.307,2.929-1.756l0.183-0.073c2.055-0.829,4.428-1.929,6.447-3.809
		c2.157-2.01,3.542-4.621,3.897-7.354c0.623-4.789-1.985-9.257-4.661-11.874c-0.035-0.038-0.072-0.072-0.107-0.103l-0.951,1.053
		c0.029,0.028,0.06,0.057,0.089,0.086c0.547,0.643,1.665,4.394,0.689,7.315c-0.663,1.985-2.138,3.057-4.384,3.186
		c-0.306,0.017-0.752,0.001-1.272-0.034c-0.153-1.703-0.683-3.446-1.591-5.177c-0.847-1.614-1.686-4.044-1.498-6.027
		c0.187-1.977,0.667-2.872,2.99-3.955c1.43-0.666,2.442-0.765,3.728-0.889c0.893-0.087,1.905-0.186,3.214-0.493
		c1.634-0.383,3.465-1.009,4.666-2.741C106.495,41.545,106.344,35.949,102.773,33.068z"/>
	<path class="hairb-1left" fill="#d3b312" d="M39.537,84.141c-1.803-0.383-4.128-2.312-5.513-5.463l-0.136-0.312c-0.414-0.952-0.842-1.938-1.522-2.733
		c-0.981-1.147-2.308-1.681-3.478-2.15l-0.183-0.073c-1.934-0.78-4.16-1.81-6.01-3.532c-1.917-1.783-3.145-4.091-3.458-6.496
		c-0.359-2.767,0.508-5.431,1.825-7.61c-0.192,1.513-0.14,3.209,0.365,4.722c0.595,1.78,2.057,3.947,5.648,4.152
		c0.34,0.019,0.792,0.006,1.313-0.026c0.035,0.972,0.2,1.925,0.494,2.849c0.938,2.941,3.513,5.205,7.491,6.62
		c-0.289-0.558-0.549-1.169-0.742-1.819c-2.849-1.253-4.695-3.03-5.396-5.232c-1.045-3.277-0.01-6.354,1.042-8.358
		c1.188-2.264,2.332-4.653,2.13-6.784c-0.232-2.456-1.658-4.214-4.486-5.532c-2.443-1.139-5.687-0.363-8.549,0.32
		c-0.45,0.108-0.894,0.214-1.327,0.311c-1.183,0.265-3.496,0.471-5.703-1.122c-1.357-0.979-2.302-3.762-1.645-6.395
		c0.426,1.434,1.28,2.958,2.622,3.957c1.152,0.856,3.088,1.608,5.77,0.327c4.568-2.183,7.688-2.827,10.887-2.213
		c-0.195-0.507-0.367-1.017-0.518-1.521c-3.232-0.427-6.534,0.328-10.981,2.453c-1.641,0.784-3.091,0.722-4.311-0.185
		c-1.761-1.311-2.555-3.979-2.349-5.314l-1.281-0.518c-2.673,3.789-1.274,8.938,0.975,10.561c2.658,1.918,5.428,1.673,6.844,1.356
		c0.439-0.098,0.89-0.206,1.347-0.314c2.637-0.63,5.626-1.344,7.62-0.415c2.357,1.099,3.49,2.45,3.673,4.379
		c0.179,1.889-1.168,4.456-1.974,5.99c-0.908,1.73-1.438,3.473-1.591,5.177c-0.521,0.035-0.968,0.051-1.273,0.034
		c-2.245-0.129-3.72-1.2-4.383-3.185c-0.975-2.922,0.143-6.673,0.689-7.316c0.03-0.029,0.059-0.058,0.088-0.086l-0.951-1.053
		c-0.036,0.03-0.071,0.064-0.107,0.103c-2.676,2.616-5.285,7.084-4.661,11.874c0.355,2.733,1.74,5.345,3.898,7.354
		c2.019,1.879,4.392,2.979,6.446,3.809L28.36,74.8c1.118,0.449,2.172,0.873,2.927,1.756c0.542,0.634,0.911,1.48,1.3,2.376
		l0.138,0.317c1.632,3.716,4.801,6.384,7.454,6.384l0,0C39.935,85.126,39.721,84.627,39.537,84.141z"/>
	<path class="hairb-1right" fill="#d3b312" d="M102.773,33.068l-1.091,0.849c0.58,1.262,0.724,3.239-0.124,4.578c-0.64,1.011-1.761,1.534-3.335,1.552
		c-1.784,0.023-2.905-0.106-3.896-0.219c-0.964-0.109-1.8-0.204-2.917-0.119c-0.139,0.486-0.296,0.98-0.475,1.473
		c1.285-0.165,2.117-0.071,3.231,0.056c0.982,0.112,2.206,0.25,4.074,0.229c2.597-0.03,3.89-1.22,4.518-2.212
		c0.562-0.889,0.799-1.934,0.813-2.953c1.236,2.469,0.999,5.53,0.116,6.802c-0.926,1.337-2.452,1.847-3.823,2.168
		c-1.216,0.285-2.137,0.375-3.027,0.461c-1.363,0.132-2.54,0.247-4.188,1.016c-2.938,1.369-3.586,2.794-3.805,5.108
		c-0.217,2.292,0.713,5.027,1.655,6.821c1.052,2.004,2.087,5.081,1.042,8.358c-0.703,2.202-2.548,3.979-5.397,5.232
		c-0.192,0.65-0.453,1.262-0.741,1.819c3.978-1.415,6.554-3.679,7.49-6.62c0.295-0.924,0.459-1.877,0.494-2.848
		c0.521,0.031,0.972,0.044,1.313,0.025c3.591-0.205,5.054-2.372,5.648-4.152c0.505-1.513,0.556-3.208,0.365-4.721
		c1.315,2.179,2.183,4.843,1.823,7.61c-0.313,2.405-1.54,4.713-3.457,6.496c-1.85,1.723-4.076,2.752-6.011,3.532l-0.182,0.073
		c-1.171,0.47-2.496,1.002-3.477,2.15c-0.681,0.796-1.11,1.781-1.523,2.733l-0.137,0.312c-1.367,3.115-3.707,5.056-5.503,5.453
		c-0.187,0.49-0.401,0.991-0.649,1.502c0.005,0,0.009,0,0.014,0c2.673,0,5.798-2.648,7.439-6.384l0.137-0.316
		c0.39-0.896,0.758-1.743,1.3-2.377c0.755-0.883,1.811-1.307,2.929-1.756l0.183-0.073c2.055-0.829,4.428-1.929,6.447-3.809
		c2.157-2.01,3.542-4.621,3.897-7.354c0.623-4.789-1.985-9.257-4.661-11.874c-0.035-0.038-0.072-0.072-0.107-0.103l-0.951,1.053
		c0.029,0.028,0.06,0.057,0.089,0.086c0.547,0.643,1.665,4.394,0.689,7.315c-0.663,1.985-2.138,3.057-4.384,3.186
		c-0.306,0.017-0.752,0.001-1.272-0.034c-0.153-1.703-0.683-3.446-1.591-5.177c-0.847-1.614-1.686-4.044-1.498-6.027
		c0.187-1.977,0.667-2.872,2.99-3.955c1.43-0.666,2.442-0.765,3.728-0.889c0.893-0.087,1.905-0.186,3.214-0.493
		c1.634-0.383,3.465-1.009,4.666-2.741C106.495,41.545,106.344,35.949,102.773,33.068z"/>
	<path fill="#66ff33" d="M61.111,108.762c-3.285,0-6.109-1.357-7.316-3.29c-0.234,0.178-0.802,0.582-1.59,0.986
		c1.57,2.478,4.971,4.197,8.906,4.197c3.846,0,7.181-1.644,8.796-4.03c-0.71-0.335-1.272-0.691-1.625-0.936
		C67.004,107.505,64.271,108.762,61.111,108.762z"/>
	<path class="fire-left" d="M50.613,110l-121.842,200" stroke="#DF513D"/>
	<path class="fire-right"  d="M71.229,110l121.842,200" stroke="#DF513D"/>
	<circle class="eyes" fill="#000000" cx="50.613" cy="78.802" r="1.444"/>
	<circle class="eyes" fill="#000000" cx="71.229" cy="78.802" r="1.444"/>
	<path fill="#ECC81E" d="M83.424,49.627c-0.076,0.04-0.152,0.078-0.227,0.116c-0.369,0.189-0.7,0.358-1.039,0.585
		c0.818,2.635,1.195,4.999,1.166,7.254c-0.027,2.158-0.462,4.194-1.241,5.977c0.434,0.173,0.853,0.396,1.251,0.674
		c0.885-1.982,1.379-4.242,1.41-6.632C84.776,55.114,84.349,52.519,83.424,49.627z"/>
	<path fill="#66ff33" d="M53.041,88.263l0.893-0.313c-0.014-0.04-0.955-2.624-3.495-4.321c-0.827-0.553-1.825-1.01-3.014-1.256
		c-0.784-0.163-1.65-0.236-2.609-0.181c-1.531,0.091-2.763,0.715-3.527,1.221c0.11,0.294,0.232,0.593,0.367,0.896
		c0.64-0.449,1.784-1.087,3.216-1.171C51.025,82.774,52.961,88.038,53.041,88.263z"/>
	<path fill="#66ff33" d="M67.771,87.949l0.894,0.313c0.02-0.055,1.989-5.49,8.17-5.125c1.455,0.086,2.622,0.751,3.256,1.201
		c0.136-0.304,0.258-0.604,0.37-0.898c-0.761-0.51-2.011-1.156-3.57-1.248c-0.921-0.054-1.756,0.012-2.516,0.161
		c-1.233,0.242-2.263,0.71-3.112,1.279C68.727,85.329,67.785,87.909,67.771,87.949z"/>
	<path fill="#66ff33" d="M82.248,84.131c1.09-2.859,1.208-5.347,1.069-7.081c0.427-0.46,1.345-1.533,2.086-2.963
		c0.288-0.558,0.549-1.169,0.741-1.819c0.221-0.737,0.354-1.523,0.343-2.338c-0.03-1.94-0.864-3.677-2.479-5.161
		c-0.217-0.2-0.444-0.374-0.675-0.535c-0.398-0.277-0.817-0.501-1.251-0.674c-1.648-0.656-3.513-0.599-5.341-0.147
		c0.026-2.245,0.325-7.201,3.568-11.269c0.762-0.956,1.314-1.458,1.848-1.815c0.339-0.227,0.67-0.396,1.039-0.585
		c0.074-0.038,0.15-0.077,0.227-0.116c1.077-0.554,2.44-1.331,4.779-3.764c1.241-1.292,2.115-2.978,2.732-4.682
		c0.179-0.493,0.336-0.987,0.475-1.473c0.863-3.045,0.982-5.787,0.989-5.98l-1.865-0.256c-0.014,0.056-1.433,5.474-9.751,9.408
		c-0.21,0.099-0.421,0.198-0.64,0.296c-0.222,0.098-0.438,0.199-0.652,0.301c-3.072,1.474-5.346,3.351-7.029,5.311
		c-0.485,0.566-0.922,1.139-1.314,1.711c-1.177,1.718-1.958,3.431-2.473,4.931c-0.963,2.806-1.165,5.264-1.191,6.613
		c-0.01,0.481,0.004,0.824,0.013,0.987c-0.016,0.145-0.013,0.287,0,0.428c0.06,0.688,0.441,1.315,1.119,1.809
		c0.557,0.404,1.302,0.707,2.113,0.901c-0.532,0.353-1.014,0.705-1.428,1.036c-2.642,2.114-6.765,6.097-4.696,9.013
		c0.271,0.383,0.563,0.695,0.876,0.942c-0.754,1.333-2.336,4.969-1.028,10.298c1.077,4.389,4.049,7.073,4.175,7.186l0.089,0.07
		c0.086,0.059,1.298,0.926,1.822,2.326c-0.066,0.132-0.13,0.263-0.19,0.391c0.683,0.17,1.35,0.534,1.956,1.079l0.043,0.041
		c0.099,0.105,0.202,0.209,0.308,0.311c0.056-0.559,0.021-1.093-0.082-1.598c0.784-1.398,1.959-3.009,3.72-4.651
		c2.564-2.393,4.236-4.771,5.307-6.979C81.847,85.122,82.062,84.621,82.248,84.131z M69.38,63.209l0.01-0.22
		c-0.003-0.032-0.223-3.21,1.1-7.016c1.754-5.049,5.261-8.772,10.423-11.067c4.403-1.958,7.151-4.319,8.847-6.351
		c-0.527,2.105-1.42,4.435-2.92,5.996c-2.284,2.376-3.462,2.977-4.5,3.505c-1.031,0.526-2.006,1.022-3.509,2.907
		c-3.983,4.998-3.983,11.055-3.983,13.046c0,0.034-0.085,0.117-0.243,0.197c-1.138,0.58-3.781,0.324-4.877-0.472
		C69.341,63.455,69.369,63.276,69.38,63.209z M74.487,66.236c0.357-0.084,0.688-0.197,0.975-0.343
		c0.119-0.062,0.225-0.126,0.322-0.191c1.211-0.438,2.446-0.715,3.595-0.715c1.273,0,2.44,0.341,3.35,1.176
		c1.232,1.132,1.842,2.371,1.866,3.788c0.012,0.704-0.126,1.396-0.346,2.043c-0.04-0.554-0.164-1.117-0.417-1.655
		c-0.643-1.365-1.957-2.267-3.91-2.682c-5.99-1.277-11.575,5.431-13.403,7.904c-0.125-0.119-0.247-0.267-0.371-0.441
		c-0.928-1.308,1.51-4.176,4.335-6.437C71.548,67.83,72.964,66.934,74.487,66.236z M75.87,78.447
		c-0.145-1.624-1.106-3.017-2.471-3.76c0.398-0.278,0.809-0.563,1.246-0.857c1.672-1.127,3.081-1.47,4.189-1.016
		c1.357,0.557,2.095,2.184,2.43,3.179c0.04,0.216,0.078,0.467,0.11,0.752c0.022,0.2,0.042,0.416,0.055,0.647
		c-0.138-0.024-0.281-0.048-0.432-0.066C79.568,77.146,77.626,77.313,75.87,78.447z M79.677,68.813
		c1.568,0.334,2.606,1.016,3.084,2.025c0.577,1.223,0.259,2.71-0.057,3.646c-0.556-1.247-1.53-2.752-3.144-3.418
		c-1.73-0.713-3.739-0.312-5.972,1.193c-0.688,0.464-1.31,0.9-1.91,1.323c-1.952,1.371-3.108,2.126-3.919,2.31
		C69.716,73.356,74.686,67.753,79.677,68.813z M68.249,77.721c0.069-0.018,0.137-0.034,0.206-0.055
		c0.985-0.298,2.048-0.964,3.307-1.834c1.411,0.293,2.476,1.546,2.476,3.042c0,0.545-0.142,1.058-0.39,1.503
		c-0.076,0.104-0.151,0.213-0.226,0.323l0.011,0.008c-0.565,0.771-1.475,1.274-2.502,1.274c-1.713,0-3.106-1.394-3.106-3.108
		C68.024,78.466,68.106,78.077,68.249,77.721z M75.002,91.227c-1.433,1.337-2.515,2.656-3.336,3.883
		c-0.545-0.834-1.224-1.49-1.813-1.911c-0.313-0.295-2.688-2.63-3.563-6.193c-0.803-3.271-0.384-5.775,0.147-7.354
		c0.372,2.258,2.332,3.988,4.693,3.988c0.044,0,0.088-0.006,0.131-0.007c0.85-0.569,1.879-1.037,3.112-1.279
		c0.323-0.302,0.603-0.647,0.833-1.027c0.198-0.27,0.403-0.508,0.616-0.723c1.517-1.53,3.333-1.741,4.534-1.666
		c0.464,0.028,0.838,0.1,1.064,0.153c-0.083,1.247-0.35,2.727-0.962,4.35c-0.112,0.295-0.234,0.595-0.37,0.898
		C79.133,86.486,77.554,88.846,75.002,91.227z"/>
	<path fill="#66ff33" d="M55.426,103.686c-0.163,0.259-0.352,0.514-0.567,0.765c1.137,1.082,3.108,2.438,5.86,2.438
		c0.281,0,0.57-0.015,0.868-0.044c2.729-0.276,4.448-1.327,5.461-2.248c-0.221-0.243-0.416-0.49-0.586-0.742
		c-0.878,0.815-2.431,1.792-4.97,2.048C58.568,106.197,56.519,104.756,55.426,103.686z"/>
	<path fill="#66ff33" d="M49.472,98.509c0.607-0.545,1.274-0.909,1.957-1.08c-0.028-0.059-0.056-0.118-0.085-0.179
		c0.45-1.454,1.692-2.386,1.907-2.537l0.088-0.07c0.126-0.112,3.098-2.797,4.175-7.186c1.345-5.478-0.365-9.167-1.089-10.404
		c0.264-0.229,0.514-0.507,0.747-0.836c2.068-2.916-2.055-6.898-4.696-9.013c-0.415-0.331-0.896-0.684-1.428-1.036
		c0.812-0.194,1.557-0.497,2.114-0.901c0.369-0.269,0.647-0.58,0.838-0.917c0.231-0.407,0.331-0.854,0.281-1.319
		c0.001-0.022,0.002-0.05,0.004-0.079c0.035-0.774,0.077-3.85-1.183-7.521c-0.792-2.308-2.21-5.119-4.743-7.679
		c-0.497-0.503-1.037-0.996-1.624-1.473c-1.356-1.103-2.963-2.123-4.863-2.992c-0.08-0.036-0.158-0.074-0.238-0.11
		c-0.364-0.162-0.711-0.327-1.05-0.494c-7.954-3.915-9.328-9.155-9.34-9.204l-1.867,0.25c0.008,0.2,0.135,3.127,1.083,6.296
		c0.151,0.504,0.323,1.014,0.518,1.521c0.608,1.578,1.444,3.119,2.597,4.318c2.173,2.261,3.504,3.092,4.546,3.643
		c0.159,0.084,0.312,0.163,0.459,0.238c0.292,0.148,0.558,0.284,0.823,0.446c0.603,0.367,1.199,0.868,2.064,1.954
		c3.243,4.068,3.541,9.024,3.568,11.269c-1.8-0.443-3.634-0.507-5.265,0.118c-0.435,0.167-0.856,0.382-1.257,0.654
		c-0.256,0.173-0.506,0.364-0.745,0.584c-1.615,1.484-2.448,3.221-2.478,5.161c-0.013,0.814,0.122,1.601,0.341,2.338
		c0.193,0.65,0.454,1.262,0.742,1.819c0.767,1.48,1.727,2.581,2.131,3.012c-0.151,1.72-0.048,4.191,1.032,7.042
		c0.184,0.486,0.397,0.985,0.642,1.492c1.064,2.203,2.734,4.581,5.305,6.979c1.873,1.747,3.084,3.458,3.866,4.916
		c-0.057,0.371-0.078,0.758-0.052,1.157c0.044-0.044,0.088-0.09,0.131-0.135L49.472,98.509z M51.293,68.684
		c2.827,2.261,5.264,5.129,4.336,6.437c-0.124,0.176-0.246,0.322-0.372,0.441c-1.828-2.474-7.413-9.181-13.403-7.904
		c-1.953,0.415-3.268,1.317-3.911,2.682c-0.253,0.54-0.378,1.105-0.417,1.661c-0.219-0.646-0.356-1.336-0.346-2.042
		c0.021-1.419,0.632-2.661,1.866-3.795C42.133,63.327,48.196,66.204,51.293,68.684z M46.93,64.009c0-1.991,0-8.047-3.985-13.046
		c-1.502-1.884-2.476-2.381-3.508-2.907c-1.039-0.529-2.216-1.129-4.5-3.505c-1.497-1.557-2.388-3.887-2.917-5.992
		c1.697,2.031,4.443,4.39,8.843,6.347c5.163,2.295,8.669,6.019,10.423,11.067c1.322,3.806,1.103,6.984,1.1,7.016l0.009,0.22
		c0.011,0.067,0.039,0.246-0.347,0.525c-0.89,0.646-2.799,0.937-4.095,0.712c-0.334-0.152-0.675-0.294-1.02-0.428
		C46.934,64.015,46.93,64.011,46.93,64.009z M53.751,78.874c0,1.715-1.393,3.108-3.106,3.108c-1.026,0-1.936-0.504-2.502-1.274
		l0.011-0.008c-0.073-0.11-0.149-0.218-0.225-0.321c-0.247-0.446-0.39-0.959-0.39-1.505c0-1.496,1.064-2.749,2.475-3.042
		c1.259,0.87,2.322,1.536,3.308,1.834c0.069,0.021,0.137,0.037,0.204,0.055C53.67,78.077,53.751,78.466,53.751,78.874z
		 M45.866,78.421c-1.917-1.217-4.049-1.296-5.491-1.033c0.067-0.861,0.209-1.501,0.307-1.858c0.39-0.978,1.097-2.237,2.259-2.715
		c1.108-0.454,2.517-0.112,4.188,1.016c0.438,0.294,0.849,0.579,1.247,0.857c-1.353,0.737-2.31,2.109-2.469,3.715
		c-0.001,0.015-0.001,0.03-0.002,0.045C45.893,78.438,45.879,78.43,45.866,78.421z M39.014,70.843
		c0.477-1.012,1.515-1.694,3.086-2.029c4.983-1.062,9.956,4.543,11.916,7.079c-0.81-0.186-1.966-0.938-3.917-2.31
		c-0.601-0.423-1.222-0.858-1.911-1.323c-1.517-1.022-2.931-1.536-4.225-1.536c-0.61,0-1.193,0.115-1.748,0.343
		c-1.615,0.666-2.589,2.172-3.145,3.42C38.755,73.555,38.437,72.07,39.014,70.843z M46.774,91.227
		c-2.583-2.409-4.169-4.774-5.121-6.919c-0.135-0.303-0.256-0.602-0.367-0.896c-0.607-1.62-0.859-3.089-0.928-4.321
		c0.228-0.053,0.606-0.122,1.08-0.147c1.2-0.067,3.007,0.15,4.511,1.657c0.215,0.217,0.424,0.458,0.624,0.729
		c0.234,0.388,0.52,0.737,0.851,1.043c1.189,0.246,2.188,0.703,3.014,1.256c0.07,0.003,0.138,0.011,0.208,0.011
		c2.496,0,4.545-1.932,4.742-4.378c0.59,1.541,1.161,4.189,0.288,7.744c-0.876,3.567-3.255,5.903-3.562,6.193
		c-0.618,0.442-1.343,1.152-1.905,2.062C49.376,93.99,48.266,92.618,46.774,91.227z"/>
	<path fill="#ECC81E" d="M53.908,105.384c0.361-0.3,0.675-0.613,0.951-0.934c0.215-0.251,0.404-0.506,0.567-0.765
		c0.167-0.268,0.307-0.538,0.417-0.811c0.471-1.173,0.407-2.379-0.238-3.483c-0.662-1.136-1.64-1.857-2.751-2.032
		c-0.472-0.074-0.952-0.048-1.425,0.069c-0.683,0.171-1.35,0.535-1.957,1.08L49.43,98.55c-0.042,0.045-0.086,0.091-0.131,0.135
		c-0.774,0.788-1.732,1.474-2.071,1.478c-0.366-0.281-0.708-1.02-1.07-1.802c-0.898-1.938-2.128-4.591-5.646-5.48
		c-4.672-1.182-7.194,2.23-7.299,2.376l0.737,1.105c0.045-0.01,4.519-1.015,6.51,2.099c0.652,1.021,0.899,2.089,1.138,3.123
		c0.389,1.682,0.79,3.42,2.83,4.816c1.228,0.841,2.492,1.146,3.682,1.146c1.587,0,3.04-0.544,4.096-1.087
		c0.788-0.404,1.355-0.809,1.59-0.986C53.854,105.427,53.893,105.396,53.908,105.384z M45.229,105.228
		c-1.583-1.083-1.877-2.354-2.249-3.964c-0.253-1.099-0.541-2.343-1.325-3.57c-1.494-2.334-3.95-2.875-5.754-2.916
		c0.976-0.562,2.405-0.991,4.264-0.521c2.862,0.724,3.884,2.929,4.705,4.701c0.477,1.028,0.888,1.916,1.585,2.396
		c1.237,0.854,3.183-0.96,3.985-1.807c0.698-0.619,1.476-0.897,2.192-0.785c0.693,0.108,1.296,0.573,1.746,1.346h0
		c1.037,1.777-0.419,3.386-1.371,4.178c-0.031,0.024-2.309,1.819-4.913,1.819C47.153,106.104,46.166,105.869,45.229,105.228z"/>
	<path fill="#ECC81E" d="M72.347,98.55l-0.043-0.041c-0.606-0.545-1.273-0.909-1.956-1.079c-0.473-0.118-0.952-0.144-1.425-0.07
		c-1.112,0.175-2.089,0.896-2.751,2.032l0,0c-0.645,1.104-0.709,2.31-0.236,3.483c0.132,0.329,0.309,0.657,0.526,0.979
		c0.17,0.252,0.365,0.499,0.586,0.742c0.246,0.271,0.521,0.538,0.83,0.795c0.031,0.026,0.173,0.139,0.404,0.299
		c0.353,0.244,0.915,0.601,1.625,0.936c1.018,0.482,2.334,0.92,3.758,0.92c1.19,0,2.455-0.305,3.684-1.146
		c2.04-1.396,2.441-3.134,2.83-4.816c0.239-1.034,0.485-2.103,1.138-3.123c1.981-3.098,6.466-2.107,6.51-2.099l0.736-1.105
		c-0.104-0.146-2.623-3.558-7.299-2.376c-3.518,0.89-4.747,3.543-5.646,5.48c-0.362,0.782-0.704,1.521-1.069,1.802
		c-0.312-0.004-1.156-0.591-1.895-1.302C72.549,98.759,72.445,98.655,72.347,98.55z M76.906,98.957
		c0.821-1.771,1.843-3.977,4.705-4.7c1.859-0.471,3.289-0.041,4.264,0.521c-1.804,0.041-4.26,0.582-5.753,2.916
		c-0.785,1.228-1.072,2.472-1.326,3.57c-0.372,1.609-0.665,2.881-2.249,3.964c-3.521,2.41-7.737-0.908-7.77-0.935
		c-0.96-0.8-2.417-2.408-1.38-4.186l0,0c0.449-0.772,1.054-1.237,1.745-1.346c0.719-0.112,1.496,0.166,2.193,0.784
		c0.802,0.848,2.746,2.661,3.984,1.808C76.019,100.874,76.43,99.986,76.906,98.957z"/>
	<path fill="#66ff33" d="M60.482,93.119c-2.523,0.114-4.865,1.44-6.265,3.547l0.788,0.524c1.233-1.856,3.296-3.024,5.52-3.126
		c2.465-0.112,4.763,1.048,6.141,3.103l0.786-0.527C65.889,94.308,63.279,92.991,60.482,93.119z"/>
	<path fill="#ECC81E" d="M38.513,64.185c0.401-0.272,0.822-0.487,1.257-0.654c-0.829-1.921-1.29-4.133-1.318-6.478
		c-0.026-2.152,0.282-4.397,0.95-6.863c-0.265-0.162-0.532-0.298-0.823-0.446c-0.147-0.075-0.3-0.153-0.459-0.238
		c-0.764,2.716-1.116,5.188-1.087,7.564C37.064,59.64,37.583,62.068,38.513,64.185z"/>
	<path class="haira-2" fill="#ECC81E" d="M41.633,43.176c0.081,0.036,0.159,0.074,0.238,0.11c1.052-2.803,1.647-5.367,0.704-8.85
		c-0.63-2.321-2.884-3.376-5.065-4.397c-1.486-0.695-3.023-1.415-4.041-2.518c-2.661-2.884-2.079-5.627-1.495-7.005
		c0.988-2.333,2.587-3.674,4.751-3.987c0.227-0.032,0.445-0.049,0.656-0.049c0.703,0,1.326,0.182,1.887,0.555
		c-1.001,0.105-1.725,0.514-2.211,0.918c-1.162,0.966-1.7,2.531-1.63,3.578c0.184,2.758,1.905,4.126,4.818,5.557
		c0.784,0.385,1.904,0.719,3.322,1.142c1.393,0.416,3.054,0.913,4.777,1.593c-0.339,1.232-0.651,2.424-0.831,3.378
		c-0.961,5.102-1.168,9.253-0.78,13.075c0.587,0.478,1.127,0.97,1.624,1.473c-0.624-4.156-0.518-8.617,0.551-14.285
		c0.234-1.243,0.716-2.958,1.181-4.617c0.505-1.798,1.027-3.657,1.273-5.042c0.754-4.226-0.46-7.722-3.71-10.688
		c-2.144-1.955-2.708-4.012-2.825-5.889c1.101,1.828,2.979,4.194,6.017,6.097c3.341,2.093,4.983,5.663,4.623,10.052
		c-0.158,1.931-0.447,3.078-0.726,4.188c-0.299,1.187-0.608,2.415-0.732,4.5c-0.367,6.169,0.004,10.86,2.987,15.183
		c0.227,0.329,0.455,0.656,0.681,0.981c2.884,4.146,5.607,8.062,4.079,11.103c-1.036,2.062-2.601,3.204-4.923,3.597
		c-0.485,0.082-1.556,0.084-2.551,0.019c-0.002,0.029-0.003,0.057-0.004,0.079c0.05,0.466-0.05,0.912-0.281,1.319
		c0.544,0.042,1.099,0.06,1.592,0.06c0.659,0,1.209-0.03,1.48-0.076c2.283-0.386,4.006-1.426,5.237-3.161
		c0.652,0.622,1.41,1.163,2.299,1.605c0.819,0.406,1.86,0.665,2.889,0.681c-0.013-0.141-0.016-0.283,0-0.428
		c-0.009-0.163-0.022-0.506-0.013-0.987c-0.787-0.02-1.607-0.221-2.244-0.537c-0.856-0.426-1.576-0.962-2.186-1.593
		c1.348-2.757,0.147-5.756-1.813-8.915c0.697-3.896,0.471-7.868-0.721-11.465c-0.32-0.97-0.719-1.858-1.173-2.682
		c0.699-4.009,1.959-7.404,3.063-10.011c1.383-3.263,3.967-6.288,7.681-8.991l0,0c4.223-3.073,6.361-6.529,6.396-10.315
		c1.227,3.926,0.561,9.042-2.792,12.243c-4.588,4.38-7.188,8.766-7.321,12.348c-0.129,3.443,1.032,6.099,2.261,8.91
		c1.213,2.775,2.455,5.62,2.512,9.464c0.393-0.572,0.829-1.145,1.314-1.711c-0.34-3.315-1.476-5.918-2.526-8.321
		c-0.387-0.886-0.766-1.757-1.097-2.638c2.813-4.902,6.564-6.25,9.444-7.284c0.642-0.23,1.246-0.447,1.793-0.686
		c4.993-2.173,6.607-5.713,7.125-7.63c0.181-0.67,0.283-1.347,0.313-2.008c0.499,1.058,0.921,2.283,1.058,3.571
		c0.174,1.649-0.175,4.187-2.815,6.914c-0.768,0.792-1.515,1.445-2.236,2.076c-1.743,1.524-3.249,2.84-4.089,5.297
		c-0.75,2.195-0.609,3.563,0.06,5.399c0.214-0.102,0.431-0.203,0.652-0.301c0.219-0.098,0.43-0.197,0.64-0.296
		c-0.554-1.558-0.607-2.592-0.009-4.343c0.717-2.097,2.024-3.24,3.681-4.688c0.743-0.65,1.512-1.322,2.321-2.157
		c3.021-3.121,3.412-6.1,3.207-8.05c-0.449-4.265-3.544-7.737-3.676-7.883l-1.099,0.895c0.913,1.246,1.151,3.241,0.621,5.204
		c-0.451,1.67-1.872,4.762-6.319,6.698c-0.505,0.22-1.088,0.429-1.706,0.651c-2.736,0.981-6.54,2.352-9.54,6.86
		c-0.331-1.22-0.524-2.494-0.472-3.89c0.118-3.165,2.627-7.31,6.883-11.374c2.313-2.21,3.7-5.515,3.804-9.068
		c0.102-3.453-0.981-6.66-2.971-8.798l-1.183,0.736c1.874,4.92,0.217,9.181-5.068,13.027l0,0c-3.926,2.856-6.668,6.081-8.152,9.584
		c-1,2.358-2.122,5.343-2.869,8.836c-0.833-1.121-1.786-2.09-2.811-2.929c0.001-0.015,0.001-0.027,0.002-0.042
		c0.117-1.952,0.396-3.062,0.692-4.238c0.293-1.165,0.597-2.369,0.764-4.417c0.399-4.873-1.527-9.018-5.284-11.371
		c-5.226-3.274-6.761-8.146-6.775-8.193l-1.389,0.201c-0.001,0.276-0.012,0.571-0.022,0.883c-0.083,2.376-0.208,5.966,3.285,9.152
		c2.901,2.646,3.94,5.63,3.27,9.389c-0.234,1.312-0.744,3.128-1.238,4.888c-1.717-0.667-3.364-1.16-4.756-1.576
		c-1.301-0.388-2.424-0.724-3.102-1.056c-2.924-1.436-3.903-2.5-4.028-4.376c-0.038-0.575,0.285-1.697,1.121-2.392
		c0.744-0.618,1.736-0.773,2.952-0.461l0.758-1.093c-1.305-1.875-3.038-2.671-5.151-2.367c-2.652,0.382-4.677,2.055-5.855,4.837
		c-0.578,1.363-1.562,4.923,1.759,8.522c1.206,1.308,2.872,2.087,4.482,2.841c2.06,0.964,3.838,1.797,4.296,3.483
		c0.831,3.065,0.363,5.238-0.622,7.874C40.922,42.849,41.27,43.014,41.633,43.176z M60.075,49.208c-0.4-0.59-0.813-1.186-1.23-1.785
		c-0.226-0.324-0.452-0.65-0.679-0.978c-2.183-3.162-2.997-6.639-2.823-12.417c1.642,1.538,3.012,3.475,3.831,5.952
		C60.136,42.881,60.429,46.048,60.075,49.208z"/>
		<path class="hairb-2" fill="#d3b312" d="M41.633,43.176c0.081,0.036,0.159,0.074,0.238,0.11c1.052-2.803,1.647-5.367,0.704-8.85
		c-0.63-2.321-2.884-3.376-5.065-4.397c-1.486-0.695-3.023-1.415-4.041-2.518c-2.661-2.884-2.079-5.627-1.495-7.005
		c0.988-2.333,2.587-3.674,4.751-3.987c0.227-0.032,0.445-0.049,0.656-0.049c0.703,0,1.326,0.182,1.887,0.555
		c-1.001,0.105-1.725,0.514-2.211,0.918c-1.162,0.966-1.7,2.531-1.63,3.578c0.184,2.758,1.905,4.126,4.818,5.557
		c0.784,0.385,1.904,0.719,3.322,1.142c1.393,0.416,3.054,0.913,4.777,1.593c-0.339,1.232-0.651,2.424-0.831,3.378
		c-0.961,5.102-1.168,9.253-0.78,13.075c0.587,0.478,1.127,0.97,1.624,1.473c-0.624-4.156-0.518-8.617,0.551-14.285
		c0.234-1.243,0.716-2.958,1.181-4.617c0.505-1.798,1.027-3.657,1.273-5.042c0.754-4.226-0.46-7.722-3.71-10.688
		c-2.144-1.955-2.708-4.012-2.825-5.889c1.101,1.828,2.979,4.194,6.017,6.097c3.341,2.093,4.983,5.663,4.623,10.052
		c-0.158,1.931-0.447,3.078-0.726,4.188c-0.299,1.187-0.608,2.415-0.732,4.5c-0.367,6.169,0.004,10.86,2.987,15.183
		c0.227,0.329,0.455,0.656,0.681,0.981c2.884,4.146,5.607,8.062,4.079,11.103c-1.036,2.062-2.601,3.204-4.923,3.597
		c-0.485,0.082-1.556,0.084-2.551,0.019c-0.002,0.029-0.003,0.057-0.004,0.079c0.05,0.466-0.05,0.912-0.281,1.319
		c0.544,0.042,1.099,0.06,1.592,0.06c0.659,0,1.209-0.03,1.48-0.076c2.283-0.386,4.006-1.426,5.237-3.161
		c0.652,0.622,1.41,1.163,2.299,1.605c0.819,0.406,1.86,0.665,2.889,0.681c-0.013-0.141-0.016-0.283,0-0.428
		c-0.009-0.163-0.022-0.506-0.013-0.987c-0.787-0.02-1.607-0.221-2.244-0.537c-0.856-0.426-1.576-0.962-2.186-1.593
		c1.348-2.757,0.147-5.756-1.813-8.915c0.697-3.896,0.471-7.868-0.721-11.465c-0.32-0.97-0.719-1.858-1.173-2.682
		c0.699-4.009,1.959-7.404,3.063-10.011c1.383-3.263,3.967-6.288,7.681-8.991l0,0c4.223-3.073,6.361-6.529,6.396-10.315
		c1.227,3.926,0.561,9.042-2.792,12.243c-4.588,4.38-7.188,8.766-7.321,12.348c-0.129,3.443,1.032,6.099,2.261,8.91
		c1.213,2.775,2.455,5.62,2.512,9.464c0.393-0.572,0.829-1.145,1.314-1.711c-0.34-3.315-1.476-5.918-2.526-8.321
		c-0.387-0.886-0.766-1.757-1.097-2.638c2.813-4.902,6.564-6.25,9.444-7.284c0.642-0.23,1.246-0.447,1.793-0.686
		c4.993-2.173,6.607-5.713,7.125-7.63c0.181-0.67,0.283-1.347,0.313-2.008c0.499,1.058,0.921,2.283,1.058,3.571
		c0.174,1.649-0.175,4.187-2.815,6.914c-0.768,0.792-1.515,1.445-2.236,2.076c-1.743,1.524-3.249,2.84-4.089,5.297
		c-0.75,2.195-0.609,3.563,0.06,5.399c0.214-0.102,0.431-0.203,0.652-0.301c0.219-0.098,0.43-0.197,0.64-0.296
		c-0.554-1.558-0.607-2.592-0.009-4.343c0.717-2.097,2.024-3.24,3.681-4.688c0.743-0.65,1.512-1.322,2.321-2.157
		c3.021-3.121,3.412-6.1,3.207-8.05c-0.449-4.265-3.544-7.737-3.676-7.883l-1.099,0.895c0.913,1.246,1.151,3.241,0.621,5.204
		c-0.451,1.67-1.872,4.762-6.319,6.698c-0.505,0.22-1.088,0.429-1.706,0.651c-2.736,0.981-6.54,2.352-9.54,6.86
		c-0.331-1.22-0.524-2.494-0.472-3.89c0.118-3.165,2.627-7.31,6.883-11.374c2.313-2.21,3.7-5.515,3.804-9.068
		c0.102-3.453-0.981-6.66-2.971-8.798l-1.183,0.736c1.874,4.92,0.217,9.181-5.068,13.027l0,0c-3.926,2.856-6.668,6.081-8.152,9.584
		c-1,2.358-2.122,5.343-2.869,8.836c-0.833-1.121-1.786-2.09-2.811-2.929c0.001-0.015,0.001-0.027,0.002-0.042
		c0.117-1.952,0.396-3.062,0.692-4.238c0.293-1.165,0.597-2.369,0.764-4.417c0.399-4.873-1.527-9.018-5.284-11.371
		c-5.226-3.274-6.761-8.146-6.775-8.193l-1.389,0.201c-0.001,0.276-0.012,0.571-0.022,0.883c-0.083,2.376-0.208,5.966,3.285,9.152
		c2.901,2.646,3.94,5.63,3.27,9.389c-0.234,1.312-0.744,3.128-1.238,4.888c-1.717-0.667-3.364-1.16-4.756-1.576
		c-1.301-0.388-2.424-0.724-3.102-1.056c-2.924-1.436-3.903-2.5-4.028-4.376c-0.038-0.575,0.285-1.697,1.121-2.392
		c0.744-0.618,1.736-0.773,2.952-0.461l0.758-1.093c-1.305-1.875-3.038-2.671-5.151-2.367c-2.652,0.382-4.677,2.055-5.855,4.837
		c-0.578,1.363-1.562,4.923,1.759,8.522c1.206,1.308,2.872,2.087,4.482,2.841c2.06,0.964,3.838,1.797,4.296,3.483
		c0.831,3.065,0.363,5.238-0.622,7.874C40.922,42.849,41.27,43.014,41.633,43.176z M60.075,49.208c-0.4-0.59-0.813-1.186-1.23-1.785
		c-0.226-0.324-0.452-0.65-0.679-0.978c-2.183-3.162-2.997-6.639-2.823-12.417c1.642,1.538,3.012,3.475,3.831,5.952
		C60.136,42.881,60.429,46.048,60.075,49.208z"/>
</g>

</svg>
